<?xml version="1.0" encoding="utf-8"?>
<svg version="1.1" id="Logo" xmlns="http://www.w3.org/2000/svg" xmlns:xlink="http://www.w3.org/1999/xlink" x="0px" y="0px"
	 viewBox="0 0 512 512" xml:space="preserve">
<g>
	<path fill="currentColor" d="M96.2,364.6c7.5-12.8,17.1-23.7,29-32.7c11.8-9,25.1-15.9,39.7-20.7c14.6-4.8,29.1-7.2,43.5-7.2c13.7,0,25.5,2.6,35.5,7.7
		c10,5.2,18.7,11.7,26.2,19.5c7.5,7.8,14,16.2,19.5,25.2c5.5,9,10.5,17.4,15,25.2c4.5,7.8,8.9,14.3,13.2,19.5
		c4.3,5.2,9.2,7.7,14.5,7.7c0.7,0,1.7-0.8,3-2.5c1.3-1.7,2-2.8,2-3.5v-81.4c0-4.3-0.1-11.8-0.2-22.5c-0.2-10.7-0.4-22-0.7-34
		c-0.3-12-0.7-23.3-1-34c-0.3-10.7-0.5-18-0.5-22c-3.7-3-6.1-5.4-7.2-7.2c-1.2-1.8-1.7-4.4-1.7-7.7c0-3.7,1.2-6.9,3.5-9.7
		c2.3-2.8,4.2-5.7,5.5-8.7v-56.9c0-1.3,0-4.2,0-8.5c0-4.3-0.2-8.7-0.5-13.2c-0.3-4.5-0.7-8.6-1.2-12.2c-0.5-3.7-1.2-5.5-2.2-5.5h-1
		c-2,0-4.2,1.3-6.5,4c-2.3,2.7-4.5,5.8-6.5,9.5c-2,3.7-3.7,7.4-5,11.2c-1.3,3.8-2,6.9-2,9.2c0,5.7,0.4,11.2,1.2,16.7
		c0.8,5.5,1.2,11.1,1.2,16.7c0,16.7-2.6,33.4-7.7,50.2c-5.2,16.8-12.7,32-22.7,45.5c-10,13.5-22.3,24.5-37,33
		c-14.7,8.5-31.3,12.7-50,12.7c-10,0-19.5-1.7-28.5-5.2c-9-3.5-17-8.3-24-14.5c-7-6.2-12.5-13.6-16.5-22.2c-4-8.7-6-18-6-28
		c0-12.7,3.9-22.9,11.7-30.7c7.8-7.8,18.1-11.7,30.7-11.7c14,0,25.4,3.8,34.2,11.5c8.8,7.7,13.2,18.8,13.2,33.5c0,7-1.7,13.2-5,18.5
		c-3.3,5.3-7.7,9.7-13,13.2c-5.3,3.5-11.2,6.2-17.5,8c-6.3,1.8-12.5,2.7-18.5,2.7l-2.5,2.5c5.7,6.3,11.7,10.4,18.2,12.2
		c6.5,1.8,13.7,2.7,21.7,2.7c18.3-0.3,32.3-6.7,42-19c9.7-12.3,16.5-26.5,20.5-42.5v-21c0-26.3-5.2-47.2-15.7-62.7
		c-10.5-15.5-28.9-25.1-55.2-28.7h-64.9c-9.7,0-19.7-1.7-30-5.2C79.6,97.9,70.2,93,61.7,86.7c-8.5-6.3-15.5-14-21-23
		c-5.5-9-8.2-18.8-8.2-29.5c0-2,0.1-4.7,0.2-8.2c0.2-3.5,0.7-6.9,1.7-10.2c1-3.3,2.5-6.2,4.5-8.7c2-2.5,4.8-3.7,8.5-3.7
		c0,3.7-0.8,7-2.5,10c-1.7,3-2.5,6.3-2.5,10c0,8,2.4,13.5,7.2,16.5c4.8,3,11.1,4.5,18.7,4.5c14.6,0,29-2.8,43-8.5
		c14-5.7,28-10.7,42-15c0.7,0,2.2-0.2,4.5-0.7c2.3-0.5,3.8-0.7,4.5-0.7h53.4c5.7,0,11.8,1.4,18.5,4.2c6.7,2.8,13.2,6.4,19.5,10.7
		c6.3,4.3,12.2,9.2,17.7,14.5c5.5,5.3,9.9,10.5,13.2,15.5c0,0.7,0.8,2.2,2.5,4.7c1.7,2.5,3.4,5.2,5.2,8c1.8,2.8,3.6,5.5,5.2,8
		c1.7,2.5,2.7,3.9,3,4.2l2.5,2.5c5-4.3,11.9-11.2,20.7-20.5c8.8-9.3,17.9-18.6,27.2-28c9.3-9.3,18.1-17.5,26.2-24.5
		c8.2-7,14.2-10.5,18.2-10.5c2,0,4.3,2.2,7,6.5c2.7,4.3,5,7.2,7,8.5C422.2,34.6,434,47,444.8,60.7c10.8,13.7,16.1,29.8,15.7,48.5
		c0,13.7-3.3,25.3-10,35c-6.7,9.7-13.9,17.7-21.7,24.2c-7.8,6.5-15.1,11.6-21.7,15.2c-6.7,3.7-10,6.3-10,8c0,0.3,1.7,1.5,5.2,3.5
		c3.5,2,7.5,4.3,12,7c4.5,2.7,8.9,5.2,13.2,7.5c4.3,2.3,7.5,4.3,9.5,6c12.7,9.7,22.9,20.5,30.7,32.5c7.8,12,11.7,26.1,11.7,42.5
		c0,21.3-5.2,40-15.5,55.9c-10.3,16-23.5,29.4-39.5,40.2c-16,10.8-33.7,18.9-53.2,24.2c-19.5,5.3-38.4,8-56.7,8
		c-19.3,0-37.5-2-54.7-6c-17.2-4-33.1-12.3-47.7-25c-4.3-3.7-8.8-7.9-13.5-12.7c-4.7-4.8-9.6-9.3-14.7-13.5
		c-5.2-4.2-10.6-7.7-16.2-10.7c-5.7-3-11.7-4.5-18-4.5c-17.3,0-31.5,6.4-42.5,19.2c-11,12.8-16.5,27.7-16.5,44.7
		c0,15.3,4.7,28,14,38c9.3,10,20.6,17.9,34,23.7c13.3,5.8,27.4,9.9,42.2,12.2c14.8,2.3,27.7,3.5,38.7,3.5h6c2.3,0,6.6-0.1,12.7-0.2
		c6.2-0.2,12.7-0.4,19.7-0.7c7-0.3,13.6-0.7,19.7-1.2c6.2-0.5,10.4-1.1,12.7-1.7c12.7-3.3,23.5-8.2,32.5-14.5c9-6.3,19-12.7,30-19
		h2.5v5c-6.7,8-14.6,15.2-23.7,21.7c-9.2,6.5-19.1,12.1-29.7,16.7c-10.7,4.7-21.7,8.3-33.2,11c-11.5,2.7-22.9,4-34.2,4
		c-14.7,0-30.7-1.8-48.2-5.5c-17.5-3.7-33.7-9.5-48.7-17.5c-15-8-27.6-18.4-37.7-31.2c-10.2-12.8-15.2-28.4-15.2-46.7
		C84.9,391.9,88.7,377.5,96.2,364.6z M358.9,186.1c4.8,1.3,7.9,2,9.2,2h2.5c4.7,0,9.2-1.4,13.5-4.2c4.3-2.8,8.1-6.3,11.2-10.5
		c3.2-4.2,5.7-8.7,7.5-13.5c1.8-4.8,2.7-9.2,2.7-13.2c0-4.3-1.7-10.3-5.2-18c-3.5-7.7-7.9-15.1-13.2-22.5
		c-5.3-7.3-11.2-13.7-17.7-19c-6.5-5.3-12.7-8-18.7-8h-2.5c-3.3,0-5.4,2.9-6.2,8.7c-0.8,5.8-1.2,11.2-1.2,16.2v4
		c0.3,5,0.6,11.4,0.7,19.2c0.2,7.8,0.5,15.6,1,23.2c0.5,7.7,1.3,14.7,2.5,21c1.2,6.3,2.7,10.5,4.7,12.5
		C351,184.1,354.1,184.7,358.9,186.1z M358.4,200.1c-2.2,0.7-4.3,1.4-6.5,2.2c-2.2,0.8-4.2,1.7-6,2.7c-1.8,1-2.7,2.3-2.7,4v193.8
		c0,2.7,1,4.3,3,5c2,0.7,4,1,6,1c10.7,0,19-4.3,25-13c6-8.7,10.5-19.1,13.5-31.2c3-12.2,4.8-24.6,5.5-37.5c0.7-12.8,1-23.4,1-31.7
		v-9c0-3.3-0.4-9.8-1.2-19.5c-0.8-9.7-2.4-19.6-4.7-29.7c-2.3-10.2-5.6-19.2-9.7-27.2c-4.2-8-9.7-12-16.7-12h-1.5
		C362.1,198.7,360.6,199.4,358.4,200.1z M350.7,175.6c0-3.3,1.7-5,5-5C355.7,173.9,354,175.6,350.7,175.6z"/>
</g>
</svg>
